<svg xmlns="http://www.w3.org/2000/svg" xmlns:xlink="http://www.w3.org/1999/xlink" width="1920" height="1080"><defs><linearGradient id="a"><stop offset="0" stop-color="#4e0184"/><stop offset="1" stop-color="#25b2fd" stop-opacity="0"/></linearGradient><linearGradient id="b"><stop offset="0" stop-color="#f8f9fa"/><stop offset="1" stop-color="#f8f9fa" stop-opacity="0"/></linearGradient><filter id="c" x="-.055" width="1.11" y="-.135" height="1.27"><feGaussianBlur stdDeviation="23.486"/></filter><linearGradient xlink:href="#b" id="d" x1="379.232" y1="73.377" x2="449.086" y2="673.425" gradientUnits="userSpaceOnUse" gradientTransform="translate(-77.945)"/><linearGradient xlink:href="#b" id="f" gradientUnits="userSpaceOnUse" gradientTransform="translate(503.903 -99.858)" x1="379.232" y1="73.377" x2="449.086" y2="673.425"/><linearGradient xlink:href="#b" id="h" gradientUnits="userSpaceOnUse" gradientTransform="translate(1129.933)" x1="379.232" y1="73.377" x2="449.086" y2="673.425"/><filter id="i"><feGaussianBlur stdDeviation="13.575"/></filter><filter id="g"><feGaussianBlur stdDeviation="10.181"/></filter><filter id="e"><feGaussianBlur stdDeviation="13.575"/></filter></defs><g stroke="#f8f9fa" stroke-width="1.045"><path d="M-71.558-68.605C-111.285-7.177-40.693 33.01-128.298 40.683-252.609 97.4-170.33 223.676-50.997 180.838c110.367 4.934 165.821-9.75 278.934-75.846 119.804 14.544 133.664 157.249 336.567 5.825 123.64 80.959 271.062-42.439 211.732-137.814 111.247-44.277 45.419-180.364-89.023-151.877-84.826 26.038-89.48-25.873-173.925-47.914-40.651-10.61-44.28 45.212-201.64 5.164-68.206 10.714-121.349 117.79-182.428 98.16-153.558-49.348-145.433-1.872-200.779 54.859z" fill="#f8f9fa" filter="url(#c)" transform="translate(0 27.638)"/><path d="M702.728-100.034C663.001-38.605 733.592 1.581 645.988 9.254c-124.311 56.718-42.032 182.994 77.301 140.155 110.368 4.934 165.822-9.749 278.934-75.846 119.805 14.544 133.664 157.249 336.568 5.825 123.64 80.959 271.061-42.438 211.732-137.814 111.247-44.277 45.419-180.363-89.023-151.877-84.826 26.038-89.481-25.873-173.925-47.913-40.652-10.61-44.28 45.212-201.64 5.163-68.206 10.715-121.349 117.79-182.428 98.161-153.559-49.349-145.434-1.872-200.779 54.858z" fill="#f8f9fa" filter="url(#c)" transform="translate(0 27.638)"/><path d="M1362.728-57.177c-39.727 61.429 30.864 101.615-56.74 109.288-124.311 56.719-42.032 182.994 77.301 140.155 110.368 4.934 165.822-9.749 278.934-75.846 119.805 14.544 133.664 157.25 336.568 5.826 123.64 80.958 271.061-42.44 211.732-137.815 111.247-44.276 45.419-180.363-89.023-151.877-84.826 26.038-89.481-25.873-173.925-47.913-40.652-10.61-44.28 45.212-201.64 5.163-68.206 10.715-121.349 117.79-182.428 98.161-153.559-49.349-145.434-1.872-200.779 54.858z" fill="#f8f9fa" filter="url(#c)" transform="translate(0 27.638)"/><path d="M0-27.638C-39.727 33.791-33.785 184.246-121.39 191.92c-124.31 56.718-42.032 182.994 77.302 140.155 110.367 4.934 206.228 79.144 319.34 13.047 109.434-6.39 76.727 34.986 296.16-83.068 123.64 80.959 271.063-42.438 211.733-137.814 111.247-44.277 45.419-180.363-89.023-151.877-84.826 26.038-36.953 22.04-121.397 0-40.652-10.61-44.28 40.049-201.64 0C302.879-16.923 229.533 91.85 168.454 72.22 14.895 22.87 55.345-84.368 0-27.638z" fill="url(#d)" filter="url(#e)" transform="translate(0 27.638)"/><path d="M581.848-127.496c-39.727 61.43-33.785 211.884-121.39 219.557-124.31 56.719-42.032 182.994 77.302 140.155 110.367 4.934 206.227 79.145 319.34 13.048 119.804 14.544 93.257 68.355 296.16-83.068 123.64 80.958 271.063-42.439 211.733-137.815 111.247-44.276 45.419-180.363-89.023-151.876-84.826 26.037-36.953 22.04-121.397 0-40.652-10.61-44.28 40.048-201.64 0C884.726-116.781 811.38-8.01 750.301-27.638c-153.559-49.349-113.109-156.588-168.454-99.858z" fill="url(#f)" filter="url(#g)" transform="translate(0 27.638)"/><path d="M1207.878-27.638c-39.727 61.429-33.785 211.884-121.39 219.557-124.31 56.718-42.032 182.994 77.302 140.155 110.367 4.934 206.228 79.144 319.34 13.047 119.804 14.545 93.258 68.356 296.16-83.068 123.641 80.959 271.063-42.438 211.733-137.814C2102.27 79.962 2036.443-56.124 1902-27.638c-84.826 26.038-36.953 22.04-121.397 0-40.651-10.61-44.28 40.049-201.64 0-68.206 10.715-141.552 119.487-202.631 99.858-153.559-49.35-113.109-156.588-168.454-99.858z" fill="url(#h)" filter="url(#i)" transform="translate(0 27.638)"/></g></svg>