<svg xmlns="http://www.w3.org/2000/svg" xmlns:xlink="http://www.w3.org/1999/xlink" width="200" height="70"><defs><linearGradient id="f"><stop offset="0" stop-color="#fff447"/><stop offset="1" stop-color="#f8bc25"/></linearGradient><linearGradient id="e"><stop offset="0" stop-color="#fff"/><stop offset="1" stop-color="#fff" stop-opacity="0"/></linearGradient><linearGradient id="d"><stop offset="0" stop-color="#f5d16d"/><stop offset="1" stop-color="#f3ca54"/></linearGradient><linearGradient id="c"><stop offset="0" stop-color="#7ba620"/><stop offset="1" stop-color="#526f15"/></linearGradient><linearGradient id="b"><stop offset="0" stop-color="#ffde6a"/><stop offset="1" stop-color="#e49f07"/></linearGradient><linearGradient id="a"><stop offset="0" stop-color="#ff6565"/><stop offset="1" stop-color="#d4494e"/></linearGradient><filter id="r" x="-.397" width="1.794" y="-1.124" height="3.249" color-interpolation-filters="sRGB"><feGaussianBlur stdDeviation="52.061"/></filter><filter id="q" x="-.443" width="1.885" y="-.113" height="1.226" color-interpolation-filters="sRGB"><feGaussianBlur stdDeviation="18.063"/></filter><filter id="p" x="-.125" width="1.25" y="-.586" height="2.172" color-interpolation-filters="sRGB"><feGaussianBlur stdDeviation="24.37"/></filter><linearGradient xlink:href="#d" id="j" gradientUnits="userSpaceOnUse" x1="1249.323" y1="524.543" x2="1299.619" y2="984.391"/><linearGradient xlink:href="#e" id="l" x1="1446.218" y1="590.144" x2="1700.504" y2="1827.287" gradientUnits="userSpaceOnUse" gradientTransform="matrix(.08182 0 0 .08207 324.898 1285.804)"/><linearGradient xlink:href="#f" id="k" x1="1580.957" y1="566.747" x2="1631.729" y2="1390.847" gradientUnits="userSpaceOnUse"/><filter id="i" x="-.037" width="1.075" y="-.153" height="1.305" color-interpolation-filters="sRGB"><feGaussianBlur stdDeviation="19.12"/></filter><filter id="g" x="-.141" width="1.283" y="-.038" height="1.076" color-interpolation-filters="sRGB"><feGaussianBlur stdDeviation="3.973"/></filter><radialGradient xlink:href="#a" id="m" gradientUnits="userSpaceOnUse" gradientTransform="matrix(.73022 .00912 -.01138 .91058 -72.905 285.685)" cx="947.029" cy="676.209" fx="947.029" fy="676.209" r="165"/><radialGradient xlink:href="#b" id="n" gradientUnits="userSpaceOnUse" gradientTransform="matrix(.88315 0 0 .87957 -212.255 318.92)" cx="884.221" cy="488.411" fx="884.221" fy="488.411" r="164.962"/><radialGradient xlink:href="#c" id="o" gradientUnits="userSpaceOnUse" gradientTransform="matrix(.88315 0 0 .98955 -212.255 249.219)" cx="1123.501" cy="636.203" fx="1123.501" fy="636.203" r="147.259"/><filter id="h"><feGaussianBlur stdDeviation="15.953"/></filter></defs><path transform="matrix(.08182 0 0 .0781 -24.132 -41.84)" opacity=".1" filter="url(#g)" d="M1337.536 927.113h67.471v250.399h-67.471z"/><path d="M631.938 638.656c-45.498 27.458-73.264 63.78-88.75 108.532-71.155 11.948-123.876 72.59-143.563 129.062-9.305 9.093-13.859 22.803-11.844 35.656l3.688 23.313v.062c.995 11.832 4.1 31.613 6.781 43.157.005.02-.005.042 0 .062l49.844 317.156c1.505 9.54 6.51 18.488 13.851 24.764 7.342 6.275 16.96 9.827 26.618 9.83h55.28c2.631.542 5.315.826 8 .844h74.5c2.78 0 5.56-.283 8.282-.844h69.688a41.02 41.02 0 0 0 8.25.844h74.5c2.78 0 5.559-.283 8.28-.844h55c9.659 0 19.277-3.555 26.618-9.83 7.341-6.276 12.346-15.224 13.852-24.764l37.656-239.5c5.167-17.906 10.846-54.097 11.406-72.687l11.25-71.563c1.831-11.648-1.67-24.028-9.332-32.99-7.662-8.963-19.346-14.35-31.137-14.354h-16.593c4.781-13.614 8.943-27.344 9.906-33.937 1.961-13.437-.314-58.885-3.594-72.063-15.198-47.306-41.5-87.064-83.75-114.187-57.733-29.63-125.743-34.701-184.688-5.719zM690 819.125l13.375 36.281 34.25-19.468c2.79 5.703 4.682 9.443 7.656 15.062 2.267 5.961 3.854 9.891 6.313 15.781 1.693 6.074 2.858 10.054 4.75 16.094.249 1.369.374 2.174.656 3.656a41.225 41.225 0 0 0-15.064-16.035 41.225 41.225 0 0 0-21.186-5.933h-84.125a41.185 41.185 0 0 0-19.531 4.937c2.446-2.901 3.952-4.841 5.906-7.281a399.875 399.875 0 0 0 20.094-17.532 399.957 399.957 0 0 0 22.625-14.53A399.972 399.972 0 0 0 690 819.124z" transform="matrix(.08182 0 0 .08207 -24.132 -45.488)" opacity=".15" filter="url(#h)"/><path transform="matrix(.10807 0 0 .10841 -45.636 -53.667)" d="M992.656 678.219c2.505-.001-17.939 4.084-15.625 3.125 2.314-.96-15.052 10.615-13.281 8.843 1.771-1.77-9.803 15.596-8.844 13.282.96-2.314-3.126 18.13-3.125 15.625a30.034 30.034 0 0 0 0 .03v218.688a30.034 30.034 0 0 0 0 .032c0-2.505 4.085 17.939 3.125 15.625-.959-2.314 10.615 15.052 8.844 13.28-1.771-1.77 15.595 9.804 13.281 8.845-2.314-.96 18.13 3.126 15.625 3.125a30.034 30.034 0 0 0 .031 0h75.125c21.2 0 41.704-7.184 58.47-19.844 2.907 4.269 5.901 8.902 4.874 7.875-1.771-1.771 15.596 9.803 13.281 8.844-2.314-.96 18.13 3.126 15.625 3.125a30.034 30.034 0 0 0 .031 0h24.094a30.034 30.034 0 0 0 .031 0c-2.505 0 17.94-4.085 15.625-3.125-2.314.959 15.053-10.615 13.281-8.844-1.771 1.771 9.803-15.595 8.844-13.281-.96 2.314 3.126-18.13 3.125-15.625a30.034 30.034 0 0 0 0-.032V784.125h23.625v153.687a30.034 30.034 0 0 0 0 .032c0-2.505 4.084 17.939 3.125 15.625-.96-2.314 10.615 15.052 8.844 13.28-1.771-1.77 15.595 9.804 13.281 8.845-2.314-.96 18.13 3.126 15.625 3.125a30.034 30.034 0 0 0 .031 0h24.094a30.034 30.034 0 0 0 .03 0c-2.504 0 17.94-4.085 15.626-3.125-2.314.959 15.053-10.615 13.281-8.844-1.771 1.771 9.803-15.595 8.844-13.281-.96 2.314 3.126-18.13 3.125-15.625a30.034 30.034 0 0 0 0-.032V784.125h24.594a152.517 152.517 0 0 0-6.5 44.125c0 39.937 15.201 77.572 43.062 106.062 27.902 28.533 65.312 44.407 105.063 44.407 25.751 0 50.898-6.721 73.406-19.438-.236.111-.231.044-.062-.219l.125.22c.012-.008.019-.025.03-.032l-.124-.25c1.56-2.236 12.911-13.432 15.062-14.844.023-.451.205-1.388.47-2.593 22.86 23.155 53.124 37.156 85.562 37.156 32.708 0 63.19-14.245 86.218-37.688 1.026 3.977 3.106 14.276 2.344 12.438-.96-2.314 10.615 15.052 8.844 13.281-1.771-1.771 15.595 9.803 13.281 8.844-2.314-.96 18.13 3.126 15.625 3.125a30.034 30.034 0 0 0 .031 0h21.75a30.034 30.034 0 0 0 .031 0c-2.505 0 17.94-4.085 15.625-3.125-2.314.959 15.053-10.615 13.281-8.844-1.771 1.771 9.803-15.595 8.844-13.281-.675 1.628.863-6.042 2-11.032 9.501 9.88 9.469 9.832 22.813 23.72-1.78-1.854 15.833 10.288 13.468 9.28-2.364-1.007 18.602 3.283 16.032 3.282H1968.092c-1.77-.015 13.531-2.252 11.75-1.719-.617.184 1.84-.841 3.719-1.75-.034-.003.553.379.469.344-2.314-.96 18.13 3.126 15.625 3.125a30.034 30.034 0 0 0 .03 0h23.157a30.034 30.034 0 0 0 .03 0c-2.504 0 17.94-4.085 15.626-3.125-2.314.959 15.052-10.615 13.281-8.844-1.771 1.771 9.803-15.595 8.844-13.281-.96 2.314 3.126-18.13 3.125-15.625a30.034 30.034 0 0 0 0-.031v-3.782l10.625 21.75a30.034 30.034 0 0 0 .03.032c-.783-1.6 7.57 10.728 6.376 9.406-1.194-1.322 10.23 8.254 8.719 7.312-1.512-.942 12.119 5.114 10.406 4.625-1.708-.487 12.937 1.55 11.25 1.563H2139.966a30.034 30.034 0 0 0 .031 0c-2.505 0 17.94-4.085 15.625-3.125-2.314.959 15.053-10.615 13.281-8.844-1.771 1.771 9.803-15.595 8.844-13.281-.96 2.314 3.126-18.13 3.125-15.625a30.034 30.034 0 0 0 0-.031V719.125a30.034 30.034 0 0 0 0-.031c0 2.505-4.084-17.94-3.125-15.625.96 2.314-10.615-15.053-8.844-13.281 1.772 1.77-15.595-9.803-13.28-8.844 2.313.96-18.13-3.126-15.626-3.125a30.034 30.034 0 0 0-.03 0h-22.657a30.034 30.034 0 0 0-.031 0c2.505-.001-17.94 4.084-15.625 3.125 2.314-.96-15.053 10.615-13.281 8.844 1.77-1.772-9.803 15.595-8.844 13.28.758-1.828-1.278 8.33-2.313 12.376L2070 701.125c.784 1.6-7.569-10.728-6.375-9.406 1.194 1.322-10.23-8.255-8.719-7.313 1.512.942-12.119-5.114-10.406-4.625 1.708.488-12.937-1.55-11.25-1.562h-33.562a30.034 30.034 0 0 0-.031 0c2.505-.001-17.94 4.084-15.625 3.125 2.314-.96-15.053 10.615-13.281 8.843 1.77-1.77-9.803 15.596-8.844 13.282.025-.06-.081.436-.062.406-17.611-16.39-40.945-25.656-65.063-25.656a1002883.146 1002883.146 0 0 1-75.125 0 30.034 30.034 0 0 0-.03 0c2.504-.001-17.94 4.084-15.626 3.125 2.314-.96-15.052 10.615-13.281 8.843 1.771-1.77-9.803 15.596-8.844 13.282.754-1.82-1.27 8.206-2.312 12.312-23.055-23.383-53.536-37.562-86.25-37.562-32.43 0-62.712 13.922-85.594 37-.248-1.145-.416-2.002-.438-2.438-2.15-1.412-13.502-12.607-15.062-14.843l.125-.25c-.012-.007-.02-.025-.031-.032l-.125.22c-.169-.263-.173-.33.062-.22-22.508-12.716-47.655-19.437-73.406-19.437h-1.22-.499a30.034 30.034 0 0 0-.125 0c-35.392.381-68.713 13.452-95.063 36.625-1.125-4.83-2.758-13.054-2.062-11.375.96 2.314-10.615-15.053-8.844-13.281 1.772 1.77-15.595-9.803-13.281-8.844 2.314.959-18.13-3.127-15.625-3.125a30.034 30.034 0 0 0-.031 0h-165.313a30.034 30.034 0 0 0-.03 0c2.504-.001-17.94 4.084-15.626 3.125.292-.121-1.37.961-1.625 1.187-.264-.232-1.951-1.31-1.656-1.187 2.314.959-18.13-3.127-15.625-3.125a30.034 30.034 0 0 0-.03 0h-24.095a30.034 30.034 0 0 0-.03 0c2.504-.001-17.94 4.084-15.626 3.125 2.315-.96-15.052 10.615-13.28 8.844 1.483-1.484-5.273 8.631-7.313 11.187-15.23-14.316-35.496-23.156-57-23.156h-74.157a30.034 30.034 0 0 0-.031 0zm530.094 104c11.168 0 17.714 2.252 26.469 9-1.408-1.088 11.528 6.283 9.875 5.625-1.34-.534 6.326 1.421 8.937 2.187a179.045 179.045 0 0 0-2.406 29.219c0 9.917.828 19.669 2.406 29.219-2.151.694-10.704 2.945-9.312 2.375 1.653-.677-11.277 6.857-9.875 5.75-8.753 6.926-15.073 9.125-26.094 9.125-13.827 0-20.285-2.682-30.438-13.125-10.082-10.371-13.218-17.988-13.218-33.125 0-15.141 3.115-22.701 13.219-33.094 10.168-10.46 16.648-13.156 30.437-13.156zm172.813 1.437c9.167 0 9.858-.028 17.406 9.407 7.32 9.15 10.875 18.613 10.875 35.406 0 16.794-3.551 26.249-10.875 35.406-7.56 9.451-8.283 9.438-17.406 9.438-9.118 0-9.897-.01-17.438-9.438-7.323-9.154-10.875-18.61-10.875-35.406 0-16.727 3.56-26.178 10.844-35.313.019-.023.044-.039.062-.062h-.031v-.031c7.51-9.38 8.305-9.407 17.437-9.407zm263.218 69.094v16.094l-8.781-9.188c3.053-2.14 5.956-4.464 8.781-6.906z" style="line-height:125%;-inkscape-font-specification:Navigator" font-size="272.076" font-weight="400" letter-spacing="0" word-spacing="0" opacity=".15" filter="url(#i)" font-family="Navigator"/><path d="M27.57 6.93c-3.722 2.253-5.994 5.234-7.26 8.907-5.822.98-10.136 5.957-11.746 10.592a3.428 3.428 0 0 0-.97 2.926l.302 1.914c.082.971.336 2.595.555 3.542l4.078 26.03a3.4 3.4 0 0 0 1.133 2.033 3.38 3.38 0 0 0 2.178.806c9.868.103 19.731 0 29.6 0 .79 0 1.576-.291 2.177-.806a3.4 3.4 0 0 0 1.133-2.033l3.081-19.657c.423-1.47.887-4.44.933-5.965l.92-5.874a3.42 3.42 0 0 0-.763-2.707 3.396 3.396 0 0 0-2.547-1.178h-1.358c.391-1.118.732-2.244.81-2.786.161-1.102-.025-4.832-.293-5.914-1.244-3.883-3.396-7.146-6.852-9.372-4.724-2.432-10.288-2.848-15.11-.469zm4.75 14.81l1.095 2.978 2.802-1.597c.228.468.383.775.627 1.236.185.49.315.812.516 1.295.139.499.234.825.389 1.321.02.112.03.178.053.3-.282-.54-.713-1-1.232-1.316a3.362 3.362 0 0 0-1.734-.487h-6.882c-.555 0-1.11.14-1.598.405.2-.238.323-.397.483-.597.567-.463 1.11-.94 1.644-1.44.63-.377 1.248-.774 1.851-1.192a32.75 32.75 0 0 0 1.987-.905z" fill="#fff"/><path style="line-height:125%;-inkscape-font-specification:Navigator" d="M61.641 19.86c.271 0-1.938.443-1.688.34.25-.105-1.627 1.15-1.436.958.192-.192-1.059 1.69-.955 1.44.103-.25-.338 1.966-.338 1.694a3.246 3.256 0 0 0 0 .003v23.709a3.246 3.256 0 0 0 0 .003c0-.271.441 1.945.338 1.694-.104-.25 1.147 1.632.955 1.44-.191-.192 1.686 1.063 1.436.959-.25-.104 1.96.339 1.688.339a3.246 3.256 0 0 0 .004 0h8.119c2.29 0 4.507-.78 6.318-2.152.315.463.638.965.527.854-.191-.192 1.686 1.063 1.436.959-.25-.104 1.959.339 1.688.339a3.246 3.256 0 0 0 .004 0h2.603a3.246 3.256 0 0 0 .004 0c-.271 0 1.938-.443 1.688-.34-.25.105 1.627-1.15 1.436-.958-.192.192 1.06-1.69.955-1.44-.103.251.338-1.965.338-1.694a3.246 3.256 0 0 0 0-.003V31.342h2.553v16.662a3.246 3.256 0 0 0 0 .003c0-.271.442 1.945.338 1.694-.104-.25 1.147 1.632.956 1.44-.192-.192 1.685 1.063 1.435.959-.25-.104 1.96.339 1.689.339a3.246 3.256 0 0 0 .003 0h2.604a3.246 3.256 0 0 0 .003 0c-.27 0 1.939-.443 1.689-.34-.25.105 1.627-1.15 1.435-.958-.191.192 1.06-1.69.956-1.44-.104.251.338-1.965.338-1.694a3.246 3.256 0 0 0 0-.003V31.342h2.658a16.583 16.583 0 0 0-.703 4.784c0 4.33 1.643 8.41 4.654 11.498 3.015 3.094 7.058 4.815 11.354 4.815 2.783 0 5.5-.729 7.933-2.108-.025.012-.025.005-.006-.023l.013.023.003-.003-.013-.027c.168-.243 1.395-1.456 1.628-1.61a2.33 2.33 0 0 1 .05-.28c2.471 2.51 5.742 4.028 9.247 4.028 3.535 0 6.83-1.545 9.318-4.086.11.43.336 1.547.253 1.348-.103-.25 1.148 1.632.956 1.44-.191-.192 1.685 1.063 1.435.959-.25-.104 1.96.339 1.689.339a3.246 3.256 0 0 0 .003 0h2.35a3.246 3.256 0 0 0 .004 0c-.27 0 1.939-.443 1.689-.34-.25.105 1.627-1.15 1.435-.958-.191.192 1.06-1.69.956-1.44-.073.177.093-.655.216-1.196l2.465 2.572c-.192-.201 1.712 1.115 1.456 1.006-.255-.11 2.01.356 1.733.356H167.058c-.191-.002 1.462-.244 1.27-.187-.067.02.199-.091.402-.19-.004 0 .06.042.05.038-.25-.104 1.96.339 1.689.339a3.246 3.256 0 0 0 .003 0h2.503a3.246 3.256 0 0 0 .003 0c-.27 0 1.939-.443 1.689-.34-.25.105 1.627-1.15 1.435-.958-.191.192 1.06-1.69.956-1.44-.104.251.338-1.965.338-1.694a3.246 3.256 0 0 0 0-.003v-.41l1.148 2.358a3.246 3.256 0 0 0 .003.003c-.084-.173.818 1.163.69 1.02-.13-.143 1.105.895.941.793-.163-.102 1.31.554 1.125.501-.185-.053 1.398.168 1.216.17h3.114a3.246 3.256 0 0 0 .003 0c-.27 0 1.939-.443 1.689-.34-.25.105 1.626-1.15 1.435-.958-.192.192 1.06-1.69.956-1.44-.104.251.338-1.965.337-1.694a3.246 3.256 0 0 0 0-.003V24.295a3.246 3.256 0 0 0 0-.003c0 .272-.441-1.945-.337-1.694.103.25-1.148-1.632-.956-1.44.191.192-1.685-1.063-1.435-.959.25.104-1.96-.339-1.689-.338a3.246 3.256 0 0 0-.003 0h-2.449a3.246 3.256 0 0 0-.003 0c.27 0-1.939.442-1.689.338.25-.104-1.627 1.151-1.435.96.191-.193-1.06 1.69-.956 1.44.082-.2-.138.902-.25 1.34l-.78-1.595c.085.173-.818-1.163-.689-1.02.13.144-1.105-.895-.942-.793.163.103-1.31-.554-1.125-.501.185.053-1.398-.168-1.215-.17H170.473a3.246 3.256 0 0 0-.004 0c.27 0-1.938.443-1.688.34.25-.105-1.627 1.15-1.436.958.192-.192-1.06 1.69-.955 1.44.002-.006-.01.047-.007.044a10.332 10.332 0 0 0-7.032-2.781 108041.749 108041.749 0 0 1-8.118 0 3.246 3.256 0 0 0-.004 0c.27 0-1.938.442-1.688.338.25-.104-1.627 1.151-1.436.96.192-.193-1.06 1.69-.955 1.439.081-.197-.138.89-.25 1.335-2.492-2.535-5.786-4.072-9.322-4.072-3.504 0-6.777 1.509-9.25 4.01a2.163 2.163 0 0 1-.047-.263c-.233-.153-1.46-1.367-1.628-1.61l.014-.027c-.002 0-.002-.002-.004-.003l-.013.024c-.018-.029-.019-.036.006-.024a16.056 16.056 0 0 0-7.933-2.107h-.131H118.538a3.246 3.256 0 0 0-.014 0c-3.825.041-7.426 1.458-10.273 3.97-.122-.523-.299-1.415-.223-1.233.103.25-1.147-1.632-.956-1.44.191.192-1.685-1.063-1.435-.959.25.104-1.96-.339-1.689-.338a3.246 3.256 0 0 0-.003 0H86.079a3.246 3.256 0 0 0-.003 0c.27 0-1.939.442-1.689.338.032-.013-.148.105-.175.13-.03-.026-.211-.143-.18-.13.25.104-1.959-.339-1.688-.338a3.246 3.256 0 0 0-.003 0h-2.604a3.246 3.256 0 0 0-.004 0c.271 0-1.938.442-1.688.338.25-.104-1.627 1.151-1.436.96.16-.162-.57.935-.79 1.212-1.646-1.552-3.836-2.51-6.16-2.51h-8.014a3.246 3.256 0 0 0-.003 0zm57.288 11.276c1.207 0 1.915.244 2.86.975-.151-.118 1.247.681 1.068.61-.145-.058.684.154.966.237a19.47 19.47 0 0 0 0 6.336c-.233.075-1.157.319-1.007.257.18-.073-1.218.743-1.067.623-.946.751-1.629.99-2.82.99-1.494 0-2.192-.291-3.29-1.423-1.089-1.125-1.428-1.95-1.428-3.591 0-1.642.337-2.461 1.429-3.588 1.099-1.134 1.8-1.426 3.29-1.426zm18.676.155c.991 0 1.066-.003 1.881 1.02.792.992 1.176 2.018 1.176 3.839 0 1.82-.384 2.845-1.176 3.838-.816 1.025-.895 1.023-1.88 1.023-.986 0-1.07 0-1.885-1.023-.792-.992-1.175-2.017-1.175-3.838 0-1.814.384-2.838 1.171-3.829l.007-.006h-.003v-.004c.812-1.017.897-1.02 1.884-1.02zm28.447 7.491v1.745l-.95-.996c.33-.232.644-.484.95-.749z" font-size="272.076" font-weight="400" letter-spacing="0" word-spacing="0" fill="#fff" font-family="Navigator"/><path transform="matrix(.10807 0 0 .10841 -45.636 -53.667)" d="M992.688 708.25a10.88 10.88 0 0 0-10.875 10.875v218.688a10.88 10.88 0 0 0 10.875 10.875h75.125c18.38 0 35.225-7.173 48.187-20.5 12.951-13.318 19.812-30.363 19.813-48.938 0-15.634-4.717-30.252-13.97-42.469-4.924-6.502-10.844-11.892-17.437-16.187 3.471-3.493 6.655-7.345 9.313-11.75 6.546-10.85 9.812-23.255 9.812-36.344 0-16.99-5.446-32.577-16.093-44.906-10.623-12.3-25-19.344-40.594-19.344h-74.156zm167.406 0a10.88 10.88 0 0 0-10.875 10.875v218.688a10.88 10.88 0 0 0 10.875 10.875h24.094a10.88 10.88 0 0 0 10.874-10.875V719.125a10.88 10.88 0 0 0-10.874-10.875h-24.094zm58.687 0a10.88 10.88 0 0 0-10.875 10.875v24.094a10.88 10.88 0 0 0 10.875 10.875h59.969v183.718a10.88 10.88 0 0 0 10.875 10.875h24.094a10.88 10.88 0 0 0 10.875-10.875V754.095h59.5a10.88 10.88 0 0 0 10.875-10.875v-24.094a10.88 10.88 0 0 0-10.875-10.875H1218.78zm300.532 0c-31.897.344-60.166 12.605-82.563 35.688-22.4 23.086-34 51.898-34 84.312 0 32.74 11.77 61.818 34.5 85.063 22.736 23.25 51.379 35.375 83.594 35.375 20.706 0 40.496-5.252 58.719-15.563a10.88 10.88 0 0 0 5.53-9.469v-25.968a10.88 10.88 0 0 0-17.624-8.532c-13.361 10.573-27.768 15.594-44.719 15.594-20.66 0-37.224-7.051-51.969-22.219-14.737-15.159-21.719-32.456-21.719-54.062 0-21.606 6.977-38.868 21.72-54.032 14.749-15.171 31.317-22.25 51.968-22.25 17 0 31.451 4.952 44.813 15.25a10.88 10.88 0 0 0 17.53-8.625v-25.53a10.88 10.88 0 0 0-5.53-9.47c-18.223-10.31-38.013-15.562-58.72-15.562h-1.405a10.88 10.88 0 0 0-.126 0zm176 0c-27.7 0-52.342 12.667-71.25 35.875-18.917 23.218-28.407 51.82-28.407 84.125s9.482 60.95 28.375 84.313c18.9 23.37 43.564 36.125 71.281 36.125 27.717 0 52.44-12.743 71.5-36.094 19.064-23.357 28.657-52.018 28.657-84.344 0-32.325-9.597-60.943-28.688-84.156-19.065-23.19-43.77-35.844-71.468-35.844zm126.343 0a10.88 10.88 0 0 0-10.875 10.875v218.688a10.88 10.88 0 0 0 10.875 10.875h21.75a10.88 10.88 0 0 0 10.875-10.875v-68.688c8.749 9.01 30.531 31.628 73.375 76.219a10.88 10.88 0 0 0 7.844 3.343h32.594a10.88 10.88 0 0 0 7.875-18.406l-76.813-80.343c6.339-1.25 11.915-3.071 16.875-5.532v.031c.153-.062.285-.155.438-.218.145-.074.324-.113.469-.188V844c13.434-5.688 24.717-14.16 33.124-25.25 8.828-11.643 13.344-25.796 13.344-41.063 0-18.745-6.528-35.794-19.031-49.03-12.54-13.276-29.242-20.407-47.594-20.407a1002892.545 1002892.545 0 0 1-75.125 0zm178.031 0a10.88 10.88 0 0 0-10.874 10.875v218.688a10.88 10.88 0 0 0 10.874 10.875h23.157a10.88 10.88 0 0 0 10.875-10.875V804l67.656 138.594a10.88 10.88 0 0 0 9.781 6.093h28.813a10.88 10.88 0 0 0 10.875-10.875V719.125a10.88 10.88 0 0 0-10.875-10.875h-22.656a10.88 10.88 0 0 0-10.876 10.875v124.563l-63.406-129.344a10.88 10.88 0 0 0-9.781-6.094h-33.563zm-974.406 39.688h31.188c7.356 0 12.31 2.185 17.468 7.812 5.25 5.729 7.563 11.632 7.563 19.594 0 8.293-2.342 14.108-7.625 19.625-5.31 5.544-10.462 7.75-17.875 7.75h-30.719v-54.782zm829 0h35.875c8.954 0 15.526 2.572 21.688 8.25 5.926 5.46 8.236 10.88 8.062 19.03 0 .034.001.06 0 .094-.527 9.4-3.51 16.489-9.406 22.875-5.77 6.25-11.549 8.782-19.875 8.782h-36.344v-59.032zm-158.719 5.687c16.641 0 29.264 6.212 40.844 20.688 11.615 14.519 17.469 32.059 17.469 54.156s-5.853 39.633-17.469 54.156c-11.583 14.483-24.213 20.719-40.844 20.719-16.63 0-29.293-6.241-40.874-20.719-11.618-14.522-17.47-32.058-17.47-54.156 0-22.087 5.867-39.613 17.47-54.125.01-.007-.01-.025 0-.031 11.576-14.46 24.24-20.688 40.874-20.688zm-670.28 96.813h36.062c8.447.241 14.582 2.962 20.562 9.187 5.977 6.221 8.563 12.618 8.563 21.281 0 8.663-2.507 14.525-8.25 20.032-5.8 5.56-12.06 8.062-21.032 8.062h-35.906v-58.563z" style="line-height:125%;-inkscape-font-specification:Navigator" font-size="272.076" font-weight="400" letter-spacing="0" word-spacing="0" fill="url(#j)" font-family="Navigator"/><path fill="#fff" d="M61.806 30.604H99v19.398H61.806zM108.558 28.4H171.7v14.923h-63.14z"/><path transform="matrix(.10807 0 0 .10841 -45.636 -53.667)" style="line-height:125%;-inkscape-font-specification:Navigator" d="M992.688 708.25a10.88 10.88 0 0 0-10.875 10.875v218.688a10.88 10.88 0 0 0 10.875 10.875h75.125c18.38 0 35.225-7.173 48.187-20.5 12.951-13.318 19.812-30.363 19.813-48.938 0-15.634-4.717-30.252-13.97-42.469-4.924-6.502-10.844-11.892-17.437-16.187 3.471-3.493 6.655-7.345 9.313-11.75 6.546-10.85 9.812-23.255 9.812-36.344 0-16.99-5.446-32.577-16.093-44.906-10.623-12.3-25-19.344-40.594-19.344h-74.156zm167.406 0a10.88 10.88 0 0 0-10.875 10.875v218.688a10.88 10.88 0 0 0 10.875 10.875h24.094a10.88 10.88 0 0 0 10.874-10.875V719.125a10.88 10.88 0 0 0-10.874-10.875h-24.094zm58.687 0a10.88 10.88 0 0 0-10.875 10.875v24.094a10.88 10.88 0 0 0 10.875 10.875h59.969v183.718a10.88 10.88 0 0 0 10.875 10.875h24.094a10.88 10.88 0 0 0 10.875-10.875V754.095h59.5a10.88 10.88 0 0 0 10.875-10.875v-24.094a10.88 10.88 0 0 0-10.875-10.875H1218.78zm300.532 0c-31.897.344-60.166 12.605-82.563 35.688-22.4 23.086-34 51.898-34 84.312 0 32.74 11.77 61.818 34.5 85.063 22.736 23.25 51.379 35.375 83.594 35.375 20.706 0 40.496-5.252 58.719-15.563a10.88 10.88 0 0 0 5.53-9.469v-25.968a10.88 10.88 0 0 0-17.624-8.532c-13.361 10.573-27.768 15.594-44.719 15.594-20.66 0-37.224-7.051-51.969-22.219-14.737-15.159-21.719-32.456-21.719-54.062 0-21.606 6.977-38.868 21.72-54.032 14.749-15.171 31.317-22.25 51.968-22.25 17 0 31.451 4.952 44.813 15.25a10.88 10.88 0 0 0 17.53-8.625v-25.53a10.88 10.88 0 0 0-5.53-9.47c-18.223-10.31-38.013-15.562-58.72-15.562h-1.405a10.88 10.88 0 0 0-.126 0zm176 0c-27.7 0-52.342 12.667-71.25 35.875-18.917 23.218-28.407 51.82-28.407 84.125s9.482 60.95 28.375 84.313c18.9 23.37 43.564 36.125 71.281 36.125 27.717 0 52.44-12.743 71.5-36.094 19.064-23.357 28.657-52.018 28.657-84.344 0-32.325-9.597-60.943-28.688-84.156-19.065-23.19-43.77-35.844-71.468-35.844zm126.343 0a10.88 10.88 0 0 0-10.875 10.875v218.688a10.88 10.88 0 0 0 10.875 10.875h21.75a10.88 10.88 0 0 0 10.875-10.875v-68.688c8.749 9.01 30.531 31.628 73.375 76.219a10.88 10.88 0 0 0 7.844 3.343h32.594a10.88 10.88 0 0 0 7.875-18.406l-76.813-80.343c6.339-1.25 11.915-3.071 16.875-5.532v.031c.153-.062.285-.155.438-.218.145-.074.324-.113.469-.188V844c13.434-5.688 24.717-14.16 33.124-25.25 8.828-11.643 13.344-25.796 13.344-41.063 0-18.745-6.528-35.794-19.031-49.03-12.54-13.276-29.242-20.407-47.594-20.407a1002892.545 1002892.545 0 0 1-75.125 0zm178.031 0a10.88 10.88 0 0 0-10.874 10.875v218.688a10.88 10.88 0 0 0 10.874 10.875h23.157a10.88 10.88 0 0 0 10.875-10.875V804l67.656 138.594a10.88 10.88 0 0 0 9.781 6.093h28.813a10.88 10.88 0 0 0 10.875-10.875V719.125a10.88 10.88 0 0 0-10.875-10.875h-22.656a10.88 10.88 0 0 0-10.876 10.875v124.563l-63.406-129.344a10.88 10.88 0 0 0-9.781-6.094h-33.563zm-974.406 39.688h31.188c7.356 0 12.31 2.185 17.468 7.812 5.25 5.729 7.563 11.632 7.563 19.594 0 8.293-2.342 14.108-7.625 19.625-5.31 5.544-10.462 7.75-17.875 7.75h-30.719v-54.782zm829 0h35.875c8.954 0 15.526 2.572 21.688 8.25 5.926 5.46 8.236 10.88 8.062 19.03 0 .034.001.06 0 .094-.527 9.4-3.51 16.489-9.406 22.875-5.77 6.25-11.549 8.782-19.875 8.782h-36.344v-59.032zm-158.719 5.687c16.641 0 29.264 6.212 40.844 20.688 11.615 14.519 17.469 32.059 17.469 54.156s-5.853 39.633-17.469 54.156c-11.583 14.483-24.213 20.719-40.844 20.719-16.63 0-29.293-6.241-40.874-20.719-11.618-14.522-17.47-32.058-17.47-54.156 0-22.087 5.867-39.613 17.47-54.125.01-.007-.01-.025 0-.031 11.576-14.46 24.24-20.688 40.874-20.688zm-670.28 96.813h36.062c8.447.241 14.582 2.962 20.562 9.187 5.977 6.221 8.563 12.618 8.563 21.281 0 8.663-2.507 14.525-8.25 20.032-5.8 5.56-12.06 8.062-21.032 8.062h-35.906v-58.563z" font-size="272.076" font-weight="400" letter-spacing="0" word-spacing="0" fill="url(#k)" font-family="Navigator"/><path style="line-height:125%;-inkscape-font-specification:Navigator" d="M410.675 1354.407a1.176 1.18 0 0 0-1.176 1.18v13.357h15.541a7.455 7.455 0 0 0-2.293-2.355 6.77 6.77 0 0 0 1.008-1.276c.708-1.176 1.06-2.52 1.06-3.94 0-1.842-.587-3.53-1.737-4.866-1.148-1.334-2.704-2.1-4.39-2.1h-8.013zm18.091 0a1.176 1.18 0 0 0-1.175 1.18v13.357h4.955v-13.357a1.176 1.18 0 0 0-1.176-1.18zm6.343 0a1.176 1.18 0 0 0-1.176 1.18v2.612a1.176 1.18 0 0 0 1.176 1.18h6.48v9.565h4.956v-9.566h6.43a1.176 1.18 0 0 0 1.175-1.18v-2.611a1.176 1.18 0 0 0-1.176-1.18h-10.209zm32.48 0c-3.448.037-6.503 1.366-8.924 3.868-2.42 2.503-3.675 5.628-3.675 9.142 0 .518.028 1.027.082 1.527h5.038a9.553 9.553 0 0 1-.114-1.503c0-2.343.752-4.215 2.346-5.859 1.594-1.645 3.385-2.41 5.617-2.41 1.837 0 3.4.535 4.845 1.652a1.176 1.18 0 0 0 1.893-.935v-2.768a1.176 1.18 0 0 0-.597-1.026 12.729 12.729 0 0 0-6.347-1.688h-.152a1.176 1.18 0 0 0-.013 0zm19.02 0c-2.994 0-5.657 1.374-7.7 3.89-2.045 2.518-3.071 5.618-3.071 9.12 0 .518.023 1.027.068 1.527h4.517c-.06-.479-.093-.978-.093-1.503 0-2.396.632-4.296 1.887-5.87 1.252-1.569 2.62-2.244 4.418-2.244 1.799 0 3.163.675 4.415 2.244 1.255 1.575 1.887 3.474 1.887 5.87 0 .525-.032 1.024-.093 1.503h4.52c.045-.5.069-1.009.069-1.527 0-3.504-1.038-6.607-3.101-9.124-2.06-2.514-4.73-3.886-7.724-3.886zm13.653 0a1.176 1.18 0 0 0-1.175 1.18v13.357h11.876c1.275-.61 2.354-1.466 3.178-2.556.954-1.262 1.44-2.797 1.44-4.452 0-2.033-.705-3.881-2.056-5.316-1.355-1.44-3.16-2.213-5.143-2.213a25769.25 25769.25 0 0 1-8.12 0zm19.24 0a1.176 1.18 0 0 0-1.175 1.18v13.357h4.854v-4.156l2.022 4.156h5.764l-6.782-13.876a1.176 1.18 0 0 0-1.055-.66zm12.712 0a1.176 1.18 0 0 0-1.175 1.18v13.357h4.8v-13.357a1.176 1.18 0 0 0-1.176-1.18zm-118.016 4.304h3.37c.795 0 1.331.237 1.888.847.568.621.816 1.26.816 2.124 0 .899-.254 1.53-.825 2.128-.574.6-1.129.839-1.93.839h-3.32zm89.59 0h3.877c.968 0 1.678.279 2.344.894.645.596.893 1.186.87 2.08-.057 1.016-.379 1.782-1.015 2.472-.623.678-1.248.953-2.148.953h-3.927z" font-size="272.076" font-weight="400" letter-spacing="0" word-spacing="0" opacity=".7" fill="url(#l)" font-family="Navigator" transform="translate(-349.03 -1331.291)"/><path d="M503.464 793.122a145.72 145.72 0 0 0-68.519 123.498 145.72 145.72 0 0 0 145.72 145.72 145.72 145.72 0 0 0 145.72-145.72 145.72 145.72 0 0 0-11.745-56.918 145.72 145.72 0 0 1-77.202 22.223 145.72 145.72 0 0 1-133.974-88.803z" fill="url(#m)" transform="matrix(.06981 .0428 -.04266 .07003 21.68 -58.675)"/><path d="M636.808 590.801a145.72 145.72 0 0 0-145.72 145.72 145.72 145.72 0 0 0 127.746 144.473 145.72 145.72 0 0 1-.067-1.908 145.72 145.72 0 0 1 145.72-145.72 145.72 145.72 0 0 1 17.973 1.246 145.72 145.72 0 0 0-145.653-143.81z" fill="url(#n)" transform="matrix(.06981 .0428 -.04266 .07003 21.68 -58.675)"/><path d="M764.297 733.053a145.72 145.72 0 0 0-114.384 55.697 145.72 145.72 0 0 1 75.84 127.87 145.72 145.72 0 0 1-31.337 90.02 145.72 145.72 0 0 0 69.88 17.852 145.72 145.72 0 0 0 145.72-145.72 145.72 145.72 0 0 0-145.72-145.72z" fill="url(#o)" transform="matrix(.06981 .0428 -.04266 .07003 21.68 -58.675)"/><path d="M10.906 28.518h39.468l-4.933 31.495H15.84z" fill="#d94b58" stroke="#d94b58" stroke-width=".778" stroke-linecap="square" stroke-linejoin="round"/><path d="M517.58 902.144l.09.219h-81.858l58.418 99.379h61.206l.09.219h72.176l-.03-.22h83.566l-.03.22h72.206l.09-.22h61.205l58.388-99.378H821.27l.09-.219h-96.365l-.03.219H613.975l-.03-.219H517.58z" transform="matrix(.0855 0 0 .01531 -25.725 14.5)" opacity=".096" stroke="#000" stroke-width="4.759" stroke-linecap="square" stroke-linejoin="round" filter="url(#p)"/><path d="M17.81 28.45l3.208 31.632h6.094L25.95 28.45h-8.14zm17.52 0l-1.164 31.632h6.097L43.47 28.45h-8.139z" fill="#fff" stroke="#fff" stroke-width=".629" stroke-linecap="square" stroke-linejoin="round"/><path d="M423.41 901.693l60.281 383.75h37.657v-383.75H423.41z" transform="matrix(.09435 0 0 .08207 -28.895 -45.488)" opacity=".168" filter="url(#q)"/><path transform="matrix(.07519 0 0 .0734 -19.652 -43.936)" d="M583.975 1339.372l-54.548-30.304s-11.112 20.203-11.112 31.314c0 11.112 9.092 29.295 10.102 39.396 1.01 10.102 11.111 24.244 11.111 24.244l17.173 2.02 22.223-19.193 28.285 14.143 25.253 9.091 29.295-3.03s36.365-1.01 45.457 5.05c9.091 6.061 59.599 8.081 59.599 8.081s23.233-5.05 33.335-5.05c10.101 0 31.315-44.447 31.315-44.447s5.05-13.132-3.031-16.162c-8.081-3.03-30.305-14.143-36.365-14.143-6.061 0-30.305 8.082-39.396 9.092-9.092 1.01-59.6 3.03-59.6 3.03s10.102-14.142-16.162-19.193c-26.264-5.05-47.477-12.121-64.65-4.04-17.172 8.081-28.284 10.101-28.284 10.101z" opacity=".413" stroke="#000" filter="url(#r)"/><path d="M423.41 901.693l60.281 383.75h37.657v-383.75H423.41z" transform="matrix(-.08987 0 0 .08207 88.017 -45.488)" opacity=".168" filter="url(#q)"/></svg>